<svg xmlns="http://www.w3.org/2000/svg" width="1024" height="1024" viewBox="0 0 1024 1024"><defs><linearGradient id="grad-0" x1="0.9330127018922194" y1="0.25" x2="0.06698729810778065" y2="0.75"><stop offset="0" stop-color="#222230"/><stop offset="1" stop-color="#08080C"/></linearGradient><linearGradient id="grad-1" x1="0.1464466094067262" y1="0.14644660940672627" x2="0.8535533905932737" y2="0.8535533905932737"><stop offset="0" stop-color="#22D3EE"/><stop offset="1" stop-color="#6366F1"/></linearGradient><linearGradient id="grad-2" x1="0.1464466094067262" y1="0.8535533905932737" x2="0.8535533905932737" y2="0.14644660940672627"><stop offset="0" stop-color="#EC4899"/><stop offset="1" stop-color="#A78BFA"/></linearGradient><clipPath id="clip-3"><rect x="0" y="0" width="1024" height="1024"/></clipPath></defs><g clip-path="url(#clip-3)"><path data-name="BG" d="M 283.111111 100 H 740.888889 C 882.418012 100 924 141.581988 924 283.111111 V 740.888889 C 924 882.418012 882.418012 924 740.888889 924 H 283.111111 C 141.581988 924 100 882.418012 100 740.888889 V 283.111111 C 100 141.581988 141.581988 100 283.111111 100 Z" fill="url(#grad-0)" stroke="none"/><path data-name="Vector" d="M 277.388889 249.731481 L 562.44034 512 L 277.388889 774.268519 V 660.238744 L 437.017717 512 L 277.388889 363.761256 Z" fill="url(#grad-1)" stroke="none"/><path data-name="Vector" d="M 461.559671 249.731481 L 746.611122 512 L 461.559671 774.268519 V 660.238744 L 621.188499 512 L 461.559671 363.761256 Z" fill="url(#grad-2)" stroke="none"/></g></svg>
